<?xml version="1.0" encoding="UTF-8"?>
<svg version="1.1" xmlns="http://www.w3.org/2000/svg" width="256" height="256">
<path d="M0 0 C29.04 0 58.08 0 88 0 C86.89903888 5.5048056 85.96497242 6.51422695 82.08984375 10.30078125 C81.60294571 10.7820195 81.11604767 11.26325775 80.61439514 11.75907898 C79.06460092 13.28657021 77.50145808 14.79952748 75.9375 16.3125 C74.88124806 17.3486791 73.82589867 18.3857791 72.77148438 19.42382812 C70.1913578 21.95996895 67.5990748 24.48326459 65 27 C66.50946511 30.18086518 68.07941825 32.29869906 70.625 34.75 C71.25664063 35.36359375 71.88828125 35.9771875 72.5390625 36.609375 C73.02117187 37.06828125 73.50328125 37.5271875 74 38 C77.24875619 36.91708127 77.66131449 36.41352203 79.625 33.8125 C86.73167723 25.31235665 96.82772564 20.72816615 107.77783203 19.61645508 C111.16695626 19.49043048 114.52828457 19.43702232 117.91796875 19.47851562 C119.9985804 19.49998535 122.07574157 19.47859262 124.15625 19.453125 C137.94003955 19.42256998 148.63838022 22.7660644 159 32 C167.77117758 41.34179322 172.37094896 51.77491525 172.1953125 64.55859375 C172.1924826 65.34774673 172.18965271 66.13689972 172.18673706 66.94996643 C172.17563057 69.44597172 172.15054455 71.94160498 172.125 74.4375 C172.11495785 76.13996874 172.10583417 77.84244316 172.09765625 79.54492188 C172.0757226 83.69675576 172.04125977 87.84831502 172 92 C173.08796875 92.11988281 174.1759375 92.23976563 175.296875 92.36328125 C179.91590833 93.15748213 181.74735805 94.67343437 185 98 C188.69668821 103.51268964 188.15258252 108.19541671 187.73828125 114.53125 C185.49881812 140.24882905 185.49881812 140.24882905 195.41960144 162.77194214 C200.08770894 167.48963071 205.36433787 171.50680964 211 175 C214.86328627 173.4152642 217.28876923 170.94043113 220.203125 167.9921875 C220.6857782 167.50670441 221.1684314 167.02122131 221.66571045 166.52102661 C223.19858562 164.97700134 224.72434004 163.42615176 226.25 161.875 C227.29120361 160.82375991 228.33286541 159.77297343 229.375 158.72265625 C231.92199464 156.15366996 234.46265177 153.57851839 237 151 C237.99 151.33 238.98 151.66 240 152 C240 181.04 240 210.08 240 240 C210.96 240 181.92 240 152 240 C152 236 152 236 154.11132812 233.43457031 C155.07443002 232.47210032 156.04851129 231.52053593 157.03125 230.578125 C157.54175903 230.07327576 158.05226807 229.56842651 158.57824707 229.04827881 C160.20968124 227.43922123 161.85447267 225.84462978 163.5 224.25 C164.60898199 223.1610813 165.71706654 222.07124781 166.82421875 220.98046875 C169.53918255 218.30958914 172.266209 215.65160025 175 213 C171.17540497 204.75523425 163.19514514 195.28039236 154.53446579 192.092453 C148.17808374 190.7843787 141.78761034 191.11100275 135.33984375 191.359375 C133.29444922 191.37698718 131.24897518 191.38687118 129.20350647 191.38946533 C123.86564249 191.41399949 118.53403625 191.53037162 113.19812012 191.67095947 C104.63167611 191.87861821 96.06247191 191.93447708 87.49405098 192.00867462 C84.51563681 192.04623446 81.53959855 192.11736355 78.56199646 192.19525146 C76.73396502 192.2278979 74.90592675 192.26016516 73.07788086 192.29199219 C72.25856583 192.32215927 71.43925079 192.35232635 70.59510803 192.38340759 C64.89107931 192.45171909 61.69928915 191.26686485 57 188 C52.45608478 183.09735463 51.84825625 179.26487091 51.82299805 172.79394531 C51.81314125 171.69824722 51.81314125 171.69824722 51.80308533 170.58041382 C51.78337551 168.16298313 51.77169421 165.74561453 51.76171875 163.328125 C51.75764322 162.50113853 51.7535677 161.67415207 51.74936867 160.82210541 C51.72851663 156.44390615 51.71421184 152.06573815 51.70483398 147.6875 C51.69377839 143.17377436 51.65938612 138.66054289 51.61966228 134.14699173 C51.59346884 130.66903796 51.58513969 127.19120138 51.58155251 123.71315765 C51.57669266 122.04983945 51.56509581 120.38652626 51.54651451 118.72330475 C51.52206658 116.38968695 51.52309787 114.05734048 51.5300293 111.72363281 C51.51721924 111.04285675 51.50440918 110.36208069 51.49121094 109.66067505 C51.56202335 103.08544215 54.44851509 99.32722736 58 94 C48.43 84.43 38.86 74.86 29 65 C25.06406444 66.96796778 23.15785771 68.65803512 20.15625 71.7890625 C19.23972656 72.73007813 18.32320312 73.67109375 17.37890625 74.640625 C15.93336144 76.13591428 14.49120785 77.63419894 13.05419922 79.13769531 C11.65964367 80.59259449 10.25186339 82.03478114 8.84375 83.4765625 C8.01037109 84.34361816 7.17699219 85.21067383 6.31835938 86.10400391 C4 88 4 88 0 88 C0 58.96 0 29.92 0 0 Z M97.5625 52.5625 C97.08941406 53.14128906 96.61632812 53.72007813 96.12890625 54.31640625 C94.81331119 56.11724199 94.81331119 56.11724199 94 59 C94.42410156 59.39791748 94.84820312 59.79583496 95.28515625 60.20581055 C97.20318189 62.01976749 99.10149394 63.85313266 101 65.6875 C101.66773437 66.31333984 102.33546875 66.93917969 103.0234375 67.58398438 C103.97089844 68.50727539 103.97089844 68.50727539 104.9375 69.44921875 C105.52402344 70.00955811 106.11054687 70.56989746 106.71484375 71.1472168 C108.43075637 73.62101256 108.43876999 75.04729851 108 78 C106.80664062 79.74511719 106.80664062 79.74511719 105.15625 81.296875 C104.56972656 81.86277344 103.98320313 82.42867187 103.37890625 83.01171875 C102.75886719 83.58535156 102.13882813 84.15898438 101.5 84.75 C99.32035704 86.82088739 97.15546899 88.90374719 95 91 C95 91.33 95 91.66 95 92 C112.16 92 129.32 92 147 92 C147.12375 84.575 147.12375 84.575 147.25 77 C147.28641602 75.45441406 147.32283203 73.90882812 147.36035156 72.31640625 C147.42912317 63.78872697 147.0681662 57.71434025 141.25390625 50.9765625 C140.69574219 50.53054687 140.13757813 50.08453125 139.5625 49.625 C139.00691406 49.16351563 138.45132813 48.70203125 137.87890625 48.2265625 C132.19359109 44.51515094 126.75526626 44.63371635 120.1875 44.625 C119.22779297 44.60050781 118.26808594 44.57601562 117.27929688 44.55078125 C109.38684488 44.51845721 102.66015164 46.10740004 97.5625 52.5625 Z " fill="#494D51" transform="translate(8,8)"/>
<path d="M0 0 C1.57893791 -0.01029488 1.57893791 -0.01029488 3.18977356 -0.02079773 C6.6678315 -0.03909189 10.14543944 -0.03522399 13.62353516 -0.02954102 C16.04342801 -0.03410188 18.46331956 -0.03940717 20.88320923 -0.04542542 C25.95555889 -0.05436194 31.02775115 -0.0519275 36.10009766 -0.04199219 C42.59568133 -0.03050817 49.09072094 -0.05070322 55.58623314 -0.07990932 C60.58429407 -0.09826966 65.58222463 -0.09797903 70.58031082 -0.0922718 C72.97486763 -0.09211854 75.36943325 -0.09816725 77.76395798 -0.11056328 C81.11511943 -0.12546579 84.46527591 -0.11480007 87.81640625 -0.09765625 C88.80261459 -0.10732422 89.78882294 -0.11699219 90.80491638 -0.12695312 C92.18422585 -0.11220192 92.18422585 -0.11220192 93.59140015 -0.09715271 C94.7776854 -0.09683878 94.7776854 -0.09683878 95.98793602 -0.09651852 C98.53759766 0.40405273 98.53759766 0.40405273 105.53759766 4.40405273 C105.20759766 18.92405273 104.87759766 33.44405273 104.53759766 48.40405273 C102.53759766 48.40405273 102.53759766 48.40405273 100.35009766 46.34155273 C98.79800071 44.74812776 97.28786883 43.1280072 95.79541016 41.47827148 C95.19470703 40.8350293 94.59400391 40.19178711 93.97509766 39.52905273 C93.13785156 38.60479492 93.13785156 38.60479492 92.28369141 37.66186523 C90.63319522 36.17078083 90.63319522 36.17078083 88.62995911 36.65019226 C86.26960086 37.50060976 85.09530039 38.45488574 83.3137207 40.20800781 C82.71017258 40.79564407 82.10662445 41.38328033 81.48478699 41.98872375 C80.8460817 42.62722763 80.2073764 43.26573151 79.54931641 43.92358398 C78.88672318 44.57856369 78.22412994 45.2335434 77.54145813 45.90837097 C76.14495084 47.29408114 74.75239256 48.68378083 73.36352539 50.07714844 C71.22947643 52.21217196 69.07499246 54.32497723 66.91845703 56.43725586 C65.56494491 57.7855629 64.21268713 59.13513054 62.86181641 60.48608398 C62.21298996 61.11851517 61.56416351 61.75094635 60.89567566 62.40254211 C60.30788834 62.99963486 59.72010101 63.5967276 59.11450195 64.21191406 C58.59139938 64.73296219 58.06829681 65.25401031 57.52934265 65.79084778 C56.32513582 67.38356426 56.32513582 67.38356426 56.74739075 69.460495 C57.91051029 72.32125206 59.85991688 73.93260812 62.10009766 76.02905273 C63.61422372 77.45105569 65.10252913 78.90230426 66.53759766 80.40405273 C66.53759766 81.06405273 66.53759766 81.72405273 66.53759766 82.40405273 C68.02259766 82.89905273 68.02259766 82.89905273 69.53759766 83.40405273 C69.53759766 84.06405273 69.53759766 84.72405273 69.53759766 85.40405273 C70.11509766 85.63092773 70.69259766 85.85780273 71.28759766 86.09155273 C74.09992556 87.73207734 75.56730226 89.84184087 77.53759766 92.40405273 C66.31517269 92.49683265 55.09283935 92.56785845 43.8701086 92.61130142 C38.65862901 92.63215449 33.4474123 92.66043066 28.23608398 92.70581055 C23.20455411 92.74934936 18.17327671 92.773207 13.14157295 92.78356171 C11.22425933 92.79093863 9.30695915 92.80534413 7.38975334 92.82697296 C4.69906899 92.85611383 2.0094209 92.86000429 -0.68139648 92.8581543 C-1.4697438 92.8725354 -2.25809113 92.8869165 -3.07032776 92.9017334 C-8.64463862 92.8604052 -11.96049853 91.76987131 -16.46240234 88.40405273 C-19.47459593 84.00203566 -19.84398254 80.38016786 -19.86645508 75.11694336 C-19.87331833 74.41369431 -19.88018158 73.71044525 -19.88725281 72.98588562 C-19.9054518 70.67714863 -19.90169397 68.36909557 -19.89599609 66.06030273 C-19.90056078 64.44657166 -19.9058672 62.83284253 -19.91188049 61.21911621 C-19.92079766 57.84334394 -19.91840394 54.46780843 -19.90844727 51.09204102 C-19.8969509 46.77439332 -19.91718574 42.45756268 -19.9463644 38.14002228 C-19.96474262 34.8096196 -19.9644309 31.47941223 -19.95872688 28.14897156 C-19.95857391 26.55741732 -19.96459839 24.96584965 -19.97701836 23.37434387 C-19.99196065 21.14610022 -19.98123033 18.91935994 -19.96411133 16.69116211 C-19.96394516 15.42574585 -19.96377899 14.16032959 -19.96360779 12.85656738 C-19.23170438 7.81490776 -17.14645589 4.89018065 -13.36630249 1.55430603 C-8.94334688 -0.19765478 -4.71605341 -0.0214389 0 0 Z " fill="#B9BBBE" transform="translate(83.46240234375,103.595947265625)"/>
<path d="M0 0 C2.56313044 1.03095079 3.958017 2.52282036 5.85505676 4.52128601 C6.55372864 5.2470282 7.25240051 5.97277039 7.97224426 6.72050476 C8.61419739 7.39726257 9.25615051 8.07402039 9.91755676 8.77128601 C11.18599426 10.03972351 11.18599426 10.03972351 12.48005676 11.33378601 C13.82447057 12.67819982 15.16615856 14.02542597 16.49568176 15.38456726 C19.43976313 18.37506433 22.42343341 21.24627382 25.61677551 23.97050476 C30.08458309 27.85681111 34.25711342 31.99826325 38.41755676 36.20878601 C39.14458801 36.94032898 39.87161926 37.67187195 40.62068176 38.42558289 C42.38865175 40.20518425 44.15422054 41.98709519 45.91755676 43.77128601 C49.78084303 42.18655021 52.20632599 39.71171714 55.12068176 36.76347351 C55.60333496 36.27799042 56.08598816 35.79250732 56.58326721 35.29231262 C58.11614238 33.74828735 59.6418968 32.19743777 61.16755676 30.64628601 C62.20876037 29.59504592 63.25042217 28.54425944 64.29255676 27.49394226 C66.8395514 24.92495597 69.38020853 22.3498044 71.91755676 19.77128601 C73.40255676 20.26628601 73.40255676 20.26628601 74.91755676 20.77128601 C74.91755676 49.81128601 74.91755676 78.85128601 74.91755676 108.77128601 C45.87755676 108.77128601 16.83755676 108.77128601 -13.08244324 108.77128601 C-13.08244324 104.77128601 -13.08244324 104.77128601 -10.97111511 102.20585632 C-10.00801322 101.24338633 -9.03393194 100.29182194 -8.05119324 99.34941101 C-7.28542969 98.59213715 -7.28542969 98.59213715 -6.50419617 97.81956482 C-4.872762 96.21050724 -3.22797056 94.61591579 -1.58244324 93.02128601 C-0.47346125 91.93236731 0.6346233 90.84253383 1.74177551 89.75175476 C4.45673931 87.08087515 7.18376576 84.42288626 9.91755676 81.77128601 C8.52997496 78.6324922 6.92232269 76.54873806 4.46833801 74.16191101 C3.78449036 73.48902039 3.1006427 72.81612976 2.39607239 72.12284851 C1.32389465 71.08257507 1.32389465 71.08257507 0.23005676 70.02128601 C-4.59509054 65.31687919 -9.24387226 60.57357777 -13.59928894 55.42655945 C-15.14927156 53.60528445 -15.14927156 53.60528445 -17.58244324 51.77128601 C-20.53256678 49.41118718 -22.79737738 46.7395247 -25.23088074 43.86112976 C-27.60857267 41.17744793 -30.21554429 38.79103249 -32.89494324 36.41191101 C-34.08244324 34.77128601 -34.08244324 34.77128601 -33.83764648 32.87597656 C-32.97379078 30.46848037 -31.9755452 29.27254209 -30.18669128 27.45561218 C-29.57903427 26.8320433 -28.97137726 26.20847443 -28.3453064 25.56600952 C-27.35473991 24.57514091 -27.35473991 24.57514091 -26.34416199 23.56425476 C-25.66698624 22.87946548 -24.98981049 22.19467621 -24.29211426 21.48913574 C-22.85932601 20.04554901 -21.42254725 18.60591358 -19.98210144 17.16996765 C-17.77466066 14.96350135 -15.58940764 12.73657243 -13.40470886 10.50761414 C-12.01082886 9.10852902 -10.61568833 7.71069838 -9.21916199 6.31425476 C-8.56485703 5.64355453 -7.91055206 4.97285431 -7.23641968 4.28182983 C-6.61930618 3.67402176 -6.00219269 3.06621368 -5.36637878 2.43998718 C-4.82756577 1.89911972 -4.28875275 1.35825226 -3.73361206 0.80099487 C-2.08244324 -0.22871399 -2.08244324 -0.22871399 0 0 Z " fill="#70D921" transform="translate(173.0824432373047,139.2287139892578)"/>
<path d="M0 0 C25.41 0 50.82 0 77 0 C70.29241341 7.82551769 70.29241341 7.82551769 66.87890625 11.04296875 C66.17185547 11.72423828 65.46480469 12.40550781 64.73632812 13.10742188 C63.26696214 14.51341898 61.79016745 15.91168714 60.30664062 17.30273438 C59.60861328 17.98013672 58.91058594 18.65753906 58.19140625 19.35546875 C57.23536499 20.26268677 57.23536499 20.26268677 56.26000977 21.18823242 C54.78439406 22.91506139 54.78439406 22.91506139 55.10791016 25.06079102 C56.14005235 27.3044433 57.11320271 28.20150184 59.08203125 29.671875 C62.85527124 32.72513458 66.51417035 35.77036254 69 40 C69.0039098 43.28814387 68.32415966 45.63259034 67.16235352 48.68457031 C64.31569123 56.61621662 64.39602487 64.67350724 64.25 73 C64.21867403 74.47762229 64.18726289 75.95524277 64.15576172 77.43286133 C64.08623593 80.95508492 64.03717581 84.47727164 64 88 C59.22509766 88.15527344 59.22509766 88.15527344 57.19921875 86.7578125 C56.70035156 86.21898438 56.20148438 85.68015625 55.6875 85.125 C55.17574219 84.59132813 54.66398437 84.05765625 54.13671875 83.5078125 C53 82 53 82 53 80 C52.44892578 79.77852295 51.89785156 79.5570459 51.33007812 79.32885742 C48.29143652 77.59590203 46.10140478 75.25280929 43.71875 72.73828125 C42.70225094 71.69164143 41.68531062 70.64543 40.66796875 69.59960938 C39.07616896 67.9518575 37.48859524 66.30052307 35.90869141 64.64135742 C34.37723431 63.0375723 32.8306825 61.44967926 31.28125 59.86328125 C30.81134644 59.36129715 30.34144287 58.85931305 29.8572998 58.34211731 C27.34265846 55.69547993 27.34265846 55.69547993 23.91577148 54.96411133 C21.53007151 56.25409794 19.94532196 57.75098853 18.06640625 59.7109375 C17.33486328 60.46117187 16.60332031 61.21140625 15.84960938 61.984375 C15.09486328 62.77328125 14.34011719 63.5621875 13.5625 64.375 C12.06863169 65.92913596 10.57006995 67.47877682 9.06640625 69.0234375 C8.40584229 69.71356934 7.74527832 70.40370117 7.06469727 71.11474609 C5 73 5 73 0 76 C0 50.92 0 25.84 0 0 Z " fill="#45D0E9" transform="translate(12,12)"/>
<path d="M0 0 C1.98606026 -0.02448962 3.97164149 -0.08106425 5.95703125 -0.13818359 C18.73393655 -0.25317574 29.02381789 2.7722356 38.29296875 11.81494141 C45.85548894 20.42560035 49.86644449 28.59849798 49.71484375 40.02978516 C49.71201385 40.84254913 49.70918396 41.65531311 49.70626831 42.4927063 C49.69513744 45.0703244 49.6700464 47.64758584 49.64453125 50.22509766 C49.63449226 51.98030095 49.62536802 53.73550972 49.6171875 55.49072266 C49.59692897 59.77742656 49.5577677 64.06336624 49.51953125 68.35009766 C44.23953125 68.35009766 38.95953125 68.35009766 33.51953125 68.35009766 C33.49375 65.98853516 33.46796875 63.62697266 33.44140625 61.19384766 C33.40289284 58.88350979 33.35776301 56.57338815 33.31201172 54.26318359 C33.28394543 52.66888918 33.26266012 51.07445934 33.24853516 49.47998047 C33.23092842 35.98003377 33.23092842 35.98003377 26.84375 24.36181641 C26.30363281 23.92482422 25.76351562 23.48783203 25.20703125 23.03759766 C24.67464844 22.58771484 24.14226562 22.13783203 23.59375 21.67431641 C16.89873564 17.4000982 11.45705982 16.87969364 3.64453125 16.97509766 C2.23107422 16.95769531 2.23107422 16.95769531 0.7890625 16.93994141 C-7.07284116 16.97256341 -14.7125788 18.08477338 -20.79296875 23.47509766 C-21.40785156 23.99330078 -22.02273437 24.51150391 -22.65625 25.04541016 C-29.32155834 33.46624939 -29.13307526 42.65343964 -29.23046875 52.91259766 C-29.2586765 54.41328242 -29.28861052 55.91393577 -29.3203125 57.41455078 C-29.39680523 61.06003343 -29.43784271 64.70343982 -29.48046875 68.35009766 C-34.76046875 68.35009766 -40.04046875 68.35009766 -45.48046875 68.35009766 C-45.54982321 63.6905054 -45.60940512 59.03274651 -45.64526367 54.37304688 C-45.66023146 52.79225554 -45.68061312 51.21150487 -45.70678711 49.63085938 C-45.93778341 35.30908851 -44.51077072 23.13420192 -34.44140625 12.11962891 C-23.95309933 2.24283105 -14.014461 0.12585802 0 0 Z " fill="#D7D8D9" transform="translate(125.48046875,31.64990234375)"/>
<path d="M0 0 C2.56313044 1.03095079 3.958017 2.52282036 5.85505676 4.52128601 C6.55372864 5.2470282 7.25240051 5.97277039 7.97224426 6.72050476 C8.61419739 7.39726257 9.25615051 8.07402039 9.91755676 8.77128601 C11.18599426 10.03972351 11.18599426 10.03972351 12.48005676 11.33378601 C13.82447057 12.67819982 15.16615856 14.02542597 16.49568176 15.38456726 C19.43976313 18.37506433 22.42343341 21.24627382 25.61677551 23.97050476 C30.08458309 27.85681111 34.25711342 31.99826325 38.41755676 36.20878601 C39.14458801 36.94032898 39.87161926 37.67187195 40.62068176 38.42558289 C42.38865175 40.20518425 44.15422054 41.98709519 45.91755676 43.77128601 C49.78084303 42.18655021 52.20632599 39.71171714 55.12068176 36.76347351 C55.60333496 36.27799042 56.08598816 35.79250732 56.58326721 35.29231262 C58.11614238 33.74828735 59.6418968 32.19743777 61.16755676 30.64628601 C62.20876037 29.59504592 63.25042217 28.54425944 64.29255676 27.49394226 C66.8395514 24.92495597 69.38020853 22.3498044 71.91755676 19.77128601 C73.40255676 20.26628601 73.40255676 20.26628601 74.91755676 20.77128601 C74.91755676 49.81128601 74.91755676 78.85128601 74.91755676 108.77128601 C45.87755676 108.77128601 16.83755676 108.77128601 -13.08244324 108.77128601 C-13.08244324 104.77128601 -13.08244324 104.77128601 -10.97111511 102.20585632 C-10.00801322 101.24338633 -9.03393194 100.29182194 -8.05119324 99.34941101 C-7.28542969 98.59213715 -7.28542969 98.59213715 -6.50419617 97.81956482 C-4.872762 96.21050724 -3.22797056 94.61591579 -1.58244324 93.02128601 C-0.47346125 91.93236731 0.6346233 90.84253383 1.74177551 89.75175476 C4.45673931 87.08087515 7.18376576 84.42288626 9.91755676 81.77128601 C8.52997496 78.6324922 6.92232269 76.54873806 4.46833801 74.16191101 C3.78449036 73.48902039 3.1006427 72.81612976 2.39607239 72.12284851 C1.32389465 71.08257507 1.32389465 71.08257507 0.23005676 70.02128601 C-4.59509054 65.31687919 -9.24387226 60.57357777 -13.59928894 55.42655945 C-15.14927156 53.60528445 -15.14927156 53.60528445 -17.58244324 51.77128601 C-20.53256678 49.41118718 -22.79737738 46.7395247 -25.23088074 43.86112976 C-27.60857267 41.17744793 -30.21554429 38.79103249 -32.89494324 36.41191101 C-34.08244324 34.77128601 -34.08244324 34.77128601 -33.83764648 32.87597656 C-32.97379078 30.46848037 -31.9755452 29.27254209 -30.18669128 27.45561218 C-29.57903427 26.8320433 -28.97137726 26.20847443 -28.3453064 25.56600952 C-27.35473991 24.57514091 -27.35473991 24.57514091 -26.34416199 23.56425476 C-25.66698624 22.87946548 -24.98981049 22.19467621 -24.29211426 21.48913574 C-22.85932601 20.04554901 -21.42254725 18.60591358 -19.98210144 17.16996765 C-17.77466066 14.96350135 -15.58940764 12.73657243 -13.40470886 10.50761414 C-12.01082886 9.10852902 -10.61568833 7.71069838 -9.21916199 6.31425476 C-8.56485703 5.64355453 -7.91055206 4.97285431 -7.23641968 4.28182983 C-6.61930618 3.67402176 -6.00219269 3.06621368 -5.36637878 2.43998718 C-4.82756577 1.89911972 -4.28875275 1.35825226 -3.73361206 0.80099487 C-2.08244324 -0.22871399 -2.08244324 -0.22871399 0 0 Z M-3.76628113 7.34159851 C-4.94845541 8.5239321 -6.12785863 9.70904016 -7.30509949 10.89628601 C-7.9251738 11.51777527 -8.54524811 12.13926453 -9.18411255 12.77958679 C-11.17340339 14.77449661 -13.15919824 16.77284719 -15.14494324 18.77128601 C-16.48911624 20.12047157 -17.8335143 21.46943296 -19.17814636 22.81816101 C-22.4822003 26.13326913 -25.78312189 29.45146807 -29.08244324 32.77128601 C-24.35045283 38.48726397 -19.24120964 43.66855856 -13.93009949 48.84550476 C-12.16714274 50.58123693 -10.40479017 52.31758292 -8.64299011 54.05448914 C-5.88113845 56.77288207 -3.11574602 59.487231 -0.3400116 62.19145203 C2.34965017 64.81486014 5.0234134 67.45360848 7.69490051 70.09550476 C8.53431686 70.90597763 9.37373322 71.7164505 10.23858643 72.55148315 C11.00010513 73.30939651 11.76162384 74.06730988 12.54621887 74.84819031 C13.22317307 75.51102524 13.90012726 76.17386017 14.59759521 76.85678101 C15.91755676 78.77128601 15.91755676 78.77128601 15.75584412 80.86860657 C14.48389756 83.75557195 12.47656705 85.52689284 10.22615051 87.72050476 C9.52909752 88.40763298 9.52909752 88.40763298 8.81796265 89.10864258 C7.33727273 90.56597928 5.84677386 92.01274598 4.35505676 93.45878601 C2.86157537 94.91725082 1.370242 96.37782413 -0.11856079 97.84106445 C-1.46506605 99.16280257 -2.81768806 100.4783006 -4.170578 101.79350281 C-6.19828051 103.43265187 -6.19828051 103.43265187 -6.08244324 104.77128601 C19.32755676 104.77128601 44.73755676 104.77128601 70.91755676 104.77128601 C70.91755676 79.36128601 70.91755676 53.95128601 70.91755676 27.77128601 C65.16881694 32.66939093 65.16881694 32.66939093 59.87458801 37.89237976 C59.19331848 38.59943054 58.51204895 39.30648132 57.81013489 40.03495789 C56.40413778 41.50432387 55.00586962 42.98111856 53.61482239 44.46464539 C52.59871887 45.5116864 52.59871887 45.5116864 51.56208801 46.57987976 C50.957276 47.2172406 50.35246399 47.85460144 49.72932434 48.51127625 C47.91755676 49.77128601 47.91755676 49.77128601 46.08415222 49.60957336 C43.18295443 48.48705766 41.62538166 46.83129114 39.44026184 44.61869812 C38.56287857 43.73786057 37.6854953 42.85702301 36.78152466 41.94949341 C35.83329267 40.98262363 34.8851492 40.01566702 33.93708801 39.04862976 C32.9594393 38.06284402 31.98105024 37.07779201 31.00195312 36.09344482 C28.42959972 33.50398766 25.8659528 30.90608733 23.30445862 28.30589294 C19.19591211 24.13809545 15.07453231 19.98299521 10.95268822 15.82835579 C9.5113027 14.37295833 8.07376599 12.91384186 6.63674927 11.45413208 C5.76882248 10.57644669 4.90089569 9.69876129 4.00666809 8.79447937 C3.23929825 8.0158403 2.47192841 7.23720123 1.68130493 6.43496704 C-1.12832333 3.78474445 -0.72256231 4.42662792 -3.76628113 7.34159851 Z " fill="#4A9313" transform="translate(173.0824432373047,139.2287139892578)"/>
<path d="M0 0 C29.04 0 58.08 0 88 0 C86.89903888 5.5048056 85.96497242 6.51422695 82.08984375 10.30078125 C81.60294571 10.7820195 81.11604767 11.26325775 80.61439514 11.75907898 C79.06460092 13.28657021 77.50145808 14.79952748 75.9375 16.3125 C74.88124806 17.3486791 73.82589867 18.3857791 72.77148438 19.42382812 C70.1913578 21.95996895 67.5990748 24.48326459 65 27 C67.01892756 31.32530899 69.86182115 33.76969534 73.41796875 36.90234375 C75 39 75 39 74.73828125 41.75390625 C74.49464844 42.49511719 74.25101562 43.23632812 74 44 C69.74685214 42.32357676 66.87898186 39.2824091 63.6875 36.125 C63.12482422 35.59519531 62.56214844 35.06539062 61.98242188 34.51953125 C60.38671875 32.9453125 60.38671875 32.9453125 58 30 C60.69227896 19.23088415 72.15072544 12.84927456 80 5 C54.92 4.67 29.84 4.34 4 4 C4.33 28.75 4.66 53.5 5 79 C11.96768582 72.61295466 18.50110162 66.59546957 24.84375 59.703125 C27 58 27 58 28.79321289 58.0703125 C31.99003027 59.41708544 34.09026674 61.72205325 36.46484375 64.171875 C36.98003067 64.69130676 37.49521759 65.21073853 38.02601624 65.74591064 C39.67036689 67.407018 41.30400374 69.07822431 42.9375 70.75 C44.03250568 71.86006342 45.12820189 72.96944612 46.22460938 74.078125 C48.25163926 76.12959356 50.27446137 78.18502477 52.29272461 80.24511719 C54.10429863 82.08854772 55.92422023 83.9238103 57.75219727 85.75097656 C59.04315574 87.04263611 60.32177403 88.34751595 61.5625 89.6875 C63.23456517 91.2141682 64.94228223 92.07757479 67 93 C64.054268 94.1629386 62.10477455 94.92266018 59 95 C56.00536703 93.42946106 53.93286697 91.10051467 51.65625 88.6328125 C51.00168823 87.96410126 50.34712646 87.29539001 49.67272949 86.60641479 C47.59050508 84.46827523 45.54571893 82.29803587 43.5 80.125 C42.09347951 78.66831599 40.684649 77.21385866 39.2734375 75.76171875 C35.8216367 72.19974858 32.4030124 68.60858471 29 65 C25.28900904 66.73101843 23.00363356 68.81890892 20.15625 71.7890625 C19.23972656 72.73007813 18.32320312 73.67109375 17.37890625 74.640625 C15.93336144 76.13591428 14.49120785 77.63419894 13.05419922 79.13769531 C11.65964367 80.59259449 10.25186339 82.03478114 8.84375 83.4765625 C8.01037109 84.34361816 7.17699219 85.21067383 6.31835938 86.10400391 C4 88 4 88 0 88 C0 58.96 0 29.92 0 0 Z " fill="#096EBF" transform="translate(8,8)"/>
<path d="M0 0 C1.05583786 -0.00525696 2.11167572 -0.01051392 3.19950867 -0.01593018 C6.68719302 -0.02912642 10.17442043 -0.0203931 13.66210938 -0.01025391 C16.08679288 -0.01227474 18.5114758 -0.01518626 20.93615723 -0.01895142 C26.01690459 -0.02337427 31.09749369 -0.01694474 36.17822266 -0.00292969 C42.69186246 0.01416194 49.20513143 0.00432059 55.71875763 -0.01364708 C60.7253092 -0.0244858 65.73177281 -0.02103811 70.73832703 -0.0132637 C73.14011173 -0.01126195 75.54190442 -0.01372007 77.94367981 -0.02070236 C81.29990812 -0.02831803 84.65553523 -0.01671025 88.01171875 0 C89.00511765 -0.00607269 89.99851654 -0.01214539 91.02201843 -0.0184021 C95.96028048 0.02716458 99.53456396 0.07559431 103.50585938 3.38818359 C103.50585938 3.71818359 103.50585938 4.04818359 103.50585938 4.38818359 C102.67786819 4.39176612 102.67786819 4.39176612 101.83314991 4.39542103 C88.39549681 4.45458368 74.95802508 4.53033029 61.52056599 4.62389851 C55.02226816 4.66864661 48.52403368 4.70789313 42.02563477 4.73461914 C35.7555928 4.76060752 29.48579401 4.80097871 23.21590233 4.85136986 C20.82252207 4.86806872 18.42909972 4.87956414 16.03566933 4.8857975 C12.68603582 4.89540549 9.33702872 4.92342632 5.98754883 4.95581055 C4.99564545 4.95437546 4.00374207 4.95294037 2.98178101 4.95146179 C-3.45401647 5.03959286 -6.86115273 6.04774991 -11.74414062 10.38818359 C-14.96548392 14.06971879 -14.64201873 17.63591955 -14.69946289 22.33813477 C-14.70936249 23.04082993 -14.71926208 23.74352509 -14.72946167 24.46751404 C-14.76103296 26.78869261 -14.78581675 29.10989164 -14.81054688 31.43115234 C-14.83112018 33.04112783 -14.85211676 34.65109796 -14.8735199 36.26106262 C-14.92870168 40.49754497 -14.97812812 44.73407576 -15.02636719 48.97064209 C-15.07661064 53.29411121 -15.13228186 57.61751003 -15.1875 61.94091797 C-15.29503396 70.4232804 -15.39648949 78.90570166 -15.49414062 87.38818359 C-18.49414062 85.38818359 -18.49414062 85.38818359 -19.49414062 82.38818359 C-19.60427277 80.07454069 -19.6532183 77.75784367 -19.67114258 75.44165039 C-19.67771378 74.73883942 -19.68428497 74.03602844 -19.6910553 73.31192017 C-19.71075854 70.98707976 -19.72244407 68.66230386 -19.73242188 66.33740234 C-19.7364974 65.54226542 -19.74057293 64.74712849 -19.74477196 63.9278965 C-19.76561981 59.7194304 -19.77992718 55.51099678 -19.78930664 51.30249023 C-19.80036973 46.96129205 -19.83477172 42.62060663 -19.87447834 38.27958965 C-19.90065287 34.93635623 -19.90899918 31.59324486 -19.91258812 28.24991798 C-19.91745178 26.64996693 -19.92905957 25.05002124 -19.94762611 23.45017052 C-19.97203719 21.20733632 -19.97104979 18.96582742 -19.96411133 16.72290039 C-19.96997757 15.44843552 -19.97584381 14.17397064 -19.98188782 12.86088562 C-19.27091007 7.79880858 -17.18895788 4.88602959 -13.40002441 1.53744507 C-8.96607715 -0.21615733 -4.72642363 -0.02889284 0 0 Z " fill="#FDFDFD" transform="translate(83.494140625,103.61181640625)"/>
<path d="M0 0 C0 25.41 0 50.82 0 77 C-25.41 77 -50.82 77 -77 77 C-74 73 -74 73 -70.98176575 72.51898193 C-69.7448851 72.52786438 -68.50800446 72.53674683 -67.23364258 72.54589844 C-66.55045456 72.54531433 -65.86726654 72.54473022 -65.16337585 72.54412842 C-62.90657629 72.54691385 -60.65109984 72.57802443 -58.39453125 72.609375 C-56.82940899 72.61683583 -55.26427739 72.62252951 -53.69914246 72.62652588 C-49.58072088 72.64179485 -45.46286404 72.68108689 -41.34466553 72.7253418 C-37.14196411 72.76626766 -32.93917139 72.78453111 -28.73632812 72.8046875 C-20.49062632 72.8475805 -12.24538342 72.9158464 -4 73 C-4.00999275 71.69454475 -4.00999275 71.69454475 -4.02018738 70.36271667 C-4.08026203 62.16678851 -4.12595581 53.97093413 -4.15543652 45.77483654 C-4.17110231 41.56097724 -4.19235703 37.34729964 -4.22631836 33.13354492 C-4.25887957 29.06813581 -4.27684613 25.00290164 -4.28463173 20.93737221 C-4.2901811 19.38518837 -4.30101755 17.83301427 -4.31719017 16.28090477 C-4.33892207 14.10917741 -4.3419688 11.93817576 -4.34057617 9.76635742 C-4.35056892 7.91103645 -4.35056892 7.91103645 -4.36076355 6.01823425 C-4 3 -4 3 -2.54121399 1.07710266 C-1 0 -1 0 0 0 Z " fill="#C0F09C" transform="translate(244,167)"/>
<path d="M0 0 C25.41 0 50.82 0 77 0 C74 4 74 4 70.98176575 4.48101807 C69.7448851 4.47213562 68.50800446 4.46325317 67.23364258 4.45410156 C66.20886055 4.45497772 66.20886055 4.45497772 65.16337585 4.45587158 C62.90657629 4.45308615 60.65109984 4.42197557 58.39453125 4.390625 C56.82940899 4.38316417 55.26427739 4.37747049 53.69914246 4.37347412 C49.58072088 4.35820515 45.46286404 4.31891311 41.34466553 4.2746582 C37.14196411 4.23373234 32.93917139 4.21546889 28.73632812 4.1953125 C20.49062632 4.1524195 12.24538342 4.0841536 4 4 C4.00888245 4.85777542 4.01776489 5.71555084 4.0269165 6.59931946 C4.10701791 14.67749281 4.16794162 22.75553306 4.20724869 30.83401203 C4.22813623 34.98741388 4.25647451 39.14048798 4.30175781 43.29370117 C4.34517495 47.3007702 4.36912831 51.30752373 4.37950897 55.3148098 C4.38690787 56.84468746 4.40135619 58.37454758 4.42292023 59.90429115 C4.45190113 62.04505539 4.45595851 64.18451106 4.45410156 66.32543945 C4.46298401 67.54455521 4.47186646 68.76367096 4.48101807 70.01972961 C4 73 4 73 0 76 C0 50.92 0 25.84 0 0 Z " fill="#ABF1F9" transform="translate(12,12)"/>
<path d="M0 0 C4.22794069 1.67270469 7.07507255 4.67175239 10.25 7.8125 C10.80429688 8.33392578 11.35859375 8.85535156 11.9296875 9.39257812 C14.15204185 11.58482669 15.81679271 13.43306003 16.78515625 16.4296875 C15.47967394 20.70335595 12.35966645 23.27784618 9.1875 26.3125 C8.22360352 27.28026367 8.22360352 27.28026367 7.24023438 28.26757812 C2.40765542 33 2.40765542 33 -1 33 C-1.02473064 28.78247482 -1.04287453 24.56498814 -1.05493164 20.34741211 C-1.05995842 18.91283432 -1.06678079 17.47826164 -1.07543945 16.04370117 C-1.08757752 13.98094418 -1.09324486 11.91825496 -1.09765625 9.85546875 C-1.10289307 8.61434326 -1.10812988 7.37321777 -1.11352539 6.09448242 C-1 3 -1 3 0 0 Z " fill="#0D6DB7" transform="translate(101,67)"/>
<path d="M0 0 C2.50402124 2.91121635 3.3736665 4.65468577 3.34057617 8.49316406 C3.34034958 9.37377502 3.34012299 10.25438599 3.33988953 11.16168213 C3.32440567 12.10348328 3.30892181 13.04528442 3.29296875 14.015625 C3.28872391 14.98659119 3.28447906 15.95755737 3.28010559 16.95794678 C3.26332853 20.05558131 3.22567772 23.15256249 3.1875 26.25 C3.17245192 28.3515531 3.15876373 30.4531164 3.14648438 32.5546875 C3.11342811 37.70337629 3.06165208 42.85157741 3 48 C0.34253547 45.96754435 -1.73454258 44.32443692 -2.41497803 40.92956543 C-2.49835928 38.38991966 -2.43174116 35.89728845 -2.3046875 33.359375 C-2.26433884 31.97519379 -2.26433884 31.97519379 -2.22317505 30.56304932 C-2.13106696 27.62398946 -2.00289319 24.68769701 -1.875 21.75 C-1.81025785 19.7578841 -1.74773256 17.76569484 -1.6875 15.7734375 C-1.19954092 1.19954092 -1.19954092 1.19954092 0 0 Z " fill="#808285" transform="translate(189,109)"/>
<path d="M0 0 C4.90852838 4.39184119 6.79060636 7.83207687 7.22705078 14.43505859 C7.21657715 15.66047363 7.20610352 16.88588867 7.1953125 18.1484375 C7.1924826 18.80582916 7.18965271 19.46322083 7.18673706 20.14053345 C7.17563447 22.21888233 7.15054986 24.29678366 7.125 26.375 C7.11495731 27.79296248 7.10583373 29.21093179 7.09765625 30.62890625 C7.07572805 34.08608037 7.04126818 37.54299642 7 41 C5.68 41 4.36 41 3 41 C2.98018066 40.00669678 2.96036133 39.01339355 2.93994141 37.98999023 C2.86345117 34.27913506 2.77480342 30.56864997 2.68261719 26.8581543 C2.64450581 25.25699204 2.60962287 23.65574937 2.578125 22.05444336 C2.53208389 19.74303586 2.47415792 17.43217356 2.4140625 15.12109375 C2.40251129 14.41351425 2.39096008 13.70593475 2.37905884 12.97691345 C2.242323 8.29618873 1.43619914 4.41190296 0 0 Z " fill="#EEEFEF" transform="translate(156,59)"/>
<path d="M0 0 C7.875 6.75 7.875 6.75 11 11 C9.35718838 12.66964521 7.71067239 14.3356464 6.0625 16 C5.14597656 16.928125 4.22945313 17.85625 3.28515625 18.8125 C1 21 1 21 0 21 C0 14.07 0 7.14 0 0 Z " fill="#21A3D0" transform="translate(101,73)"/>
<path d="M0 0 C1.423125 0.37125 1.423125 0.37125 2.875 0.75 C3.205 1.41 3.535 2.07 3.875 2.75 C0.575 2.42 -2.725 2.09 -6.125 1.75 C-3.125 -0.25 -3.125 -0.25 0 0 Z " fill="#F2F3F3" transform="translate(149.125,34.25)"/>
</svg>
