<?xml version="1.0" standalone="no"?>
<!DOCTYPE svg PUBLIC "-//W3C//DTD SVG 20010904//EN"
 "http://www.w3.org/TR/2001/REC-SVG-20010904/DTD/svg10.dtd">
<svg version="1.0" xmlns="http://www.w3.org/2000/svg"
 width="256.000000pt" height="256.000000pt" viewBox="0 0 256.000000 256.000000"
 preserveAspectRatio="xMidYMid meet">

<g transform="translate(0.000000,256.000000) scale(0.100000,-0.100000)"
fill="#000000" stroke="none">
<path d="M196 2496 c-47 -18 -94 -60 -112 -103 -17 -39 -20 -636 -4 -693 21
-74 20 -74 154 59 110 109 127 123 141 111 14 -12 25 -4 91 61 46 46 72 79 69
89 -3 9 9 26 29 42 19 15 50 59 71 100 50 99 91 146 177 204 40 27 86 61 102
75 l29 27 -34 18 c-31 17 -64 19 -354 21 -255 2 -328 0 -359 -11z"/>
<path d="M990 2309 c-53 -15 -90 -31 -90 -39 0 -17 31 -18 74 -4 37 13 88 15
273 12 209 -3 232 -5 275 -25 69 -32 114 -69 146 -122 45 -73 52 -121 52 -350
0 -204 1 -211 20 -211 19 0 20 7 20 233 0 219 -2 235 -23 288 -44 106 -133
187 -238 214 -63 17 -450 20 -509 4z"/>
<path d="M743 2104 c-28 -59 -28 -61 -31 -296 -4 -232 -3 -238 16 -238 20 0
21 8 24 238 4 204 7 244 23 284 15 37 17 50 7 60 -9 9 -18 -2 -39 -48z"/>
<path d="M1043 2101 c-47 -12 -80 -36 -100 -74 -14 -27 -17 -63 -17 -242 l-1
-210 23 -3 22 -3 0 216 0 217 29 29 29 29 210 0 209 0 25 -25 c33 -33 38 -66
38 -283 0 -169 1 -183 18 -180 15 3 17 22 18 208 2 322 0 324 -286 327 -102 1
-200 -2 -217 -6z"/>
<path d="M1331 1526 c-14 -17 5 -26 57 -26 43 0 68 13 58 29 -10 16 -101 14
-115 -3z"/>
<path d="M595 1486 c-25 -25 -25 -28 -25 -186 0 -136 -2 -160 -15 -160 -22 0
-22 -258 0 -266 10 -4 15 -20 15 -44 0 -21 -7 -43 -15 -50 -11 -9 -15 -32 -15
-82 0 -124 32 -151 169 -138 41 4 106 4 145 -1 81 -9 146 -2 161 18 8 10 72
13 294 15 l285 3 -33 38 c-18 20 -30 37 -26 37 4 0 2 7 -5 15 -7 9 -10 18 -6
22 3 3 63 -51 134 -120 l127 -127 -124 -124 c-135 -135 -135 -135 -51 -151 34
-6 38 -3 220 179 l184 186 -30 32 c-74 81 -72 69 -25 149 23 40 40 74 37 76
-2 2 -17 -4 -33 -13 -55 -32 -63 -18 -63 104 l0 108 -45 44 -45 44 0 -36 c0
-37 -13 -57 -25 -39 -3 6 -12 8 -19 5 -8 -3 -17 -1 -21 5 -3 6 -14 11 -24 11
-14 0 -20 -10 -25 -39 -5 -31 -11 -40 -32 -45 -32 -8 -44 5 -44 48 0 24 -2 27
-15 16 -23 -19 -29 -6 -33 73 -4 62 -8 75 -33 100 -28 28 -29 32 -30 135 -1
104 -2 106 -13 57 -18 -82 -55 -68 -56 22 0 17 -5 35 -12 39 -7 4 -8 3 -4 -4
4 -7 1 -12 -9 -12 -9 0 -13 5 -10 10 3 6 -4 10 -17 11 -25 1 -37 3 -80 14
l-27 7 -3 -89 -3 -88 -28 -1 c-15 -1 -30 3 -33 7 -3 5 -13 9 -23 9 -16 0 -19
13 -25 92 -3 50 -7 93 -9 94 -3 3 -364 6 -382 3 -5 -1 -20 0 -32 1 -13 1 -23
-4 -23 -12 0 -9 -3 -9 -8 -2 -4 6 -26 14 -50 18 -37 5 -46 3 -67 -18z"/>
<path d="M1501 1484 c0 -11 3 -14 6 -6 3 7 2 16 -1 19 -3 4 -6 -2 -5 -13z"/>
<path d="M1810 1445 c0 -39 4 -56 16 -63 15 -8 15 -10 0 -15 -13 -5 -16 -24
-15 -114 l1 -108 44 -39 44 -39 1 64 c0 40 3 57 8 45 4 -11 10 -15 13 -10 13
21 19 81 10 104 -10 25 -10 25 -25 -20 -3 -8 -6 35 -6 95 -1 127 -12 155 -62
155 -29 0 -29 -1 -29 -55z"/>
</g>
</svg>
