<?xml version="1.0" encoding="UTF-8"?>
<!DOCTYPE svg PUBLIC "-//W3C//DTD SVG 1.1//EN" "http://www.w3.org/Graphics/SVG/1.1/DTD/svg11.dtd">
<svg xmlns="http://www.w3.org/2000/svg" version="1.1" width="256px" height="256px" style="shape-rendering:geometricPrecision; text-rendering:geometricPrecision; image-rendering:optimizeQuality; fill-rule:evenodd; clip-rule:evenodd" xmlns:xlink="http://www.w3.org/1999/xlink">
<g><path style="opacity:0.959" fill="#096ebf" d="M 82.5,46.5 C 82.5979,48.5529 81.9313,50.2196 80.5,51.5C 76.5,47.8333 72.5,44.1667 68.5,40.5C 67.8783,39.3734 67.045,38.3734 66,37.5C 65.3333,36.5 65.3333,35.5 66,34.5C 72.3694,28.2981 78.5361,21.9648 84.5,15.5C 85.9616,14.5423 87.2949,13.3756 88.5,12C 62.8355,11.5 37.1688,11.3334 11.5,11.5C 11.3334,37.1688 11.5,62.8355 12,88.5C 13.3756,87.2949 14.5423,85.9616 15.5,84.5C 21.9648,78.5361 28.2981,72.3694 34.5,66C 35.5,65.3333 36.5,65.3333 37.5,66C 38.7051,67.3756 40.0384,68.5423 41.5,69.5C 45.5,74.1667 49.8333,78.5 54.5,82.5C 56.1667,84.8333 58.1667,86.8333 60.5,88.5C 64.1667,92.5 67.8333,96.5 71.5,100.5C 69.9505,101.441 68.2838,102.107 66.5,102.5C 56.521,91.8543 46.1877,81.521 35.5,71.5C 27.3476,79.1521 19.3476,86.9855 11.5,95C 10.2068,95.49 8.87344,95.6567 7.5,95.5C 7.5,66.1667 7.5,36.8333 7.5,7.5C 36.8333,7.5 66.1667,7.5 95.5,7.5C 95.6567,8.87344 95.49,10.2068 95,11.5C 86.9855,19.3476 79.1521,27.3476 71.5,35.5C 74.8544,39.521 78.521,43.1877 82.5,46.5 Z"/></g>
<g><path style="opacity:1" fill="#acf3fa" d="M 84.5,15.5 C 80.5,15.5 76.5,15.5 72.5,15.5C 66.8333,15.5 61.1667,15.5 55.5,15.5C 51.5,15.5 47.5,15.5 43.5,15.5C 34.1667,15.5 24.8333,15.5 15.5,15.5C 15.5,25.5 15.5,35.5 15.5,45.5C 15.5,50.1667 15.5,54.8333 15.5,59.5C 15.5,65.5 15.5,71.5 15.5,77.5C 15.5,79.8333 15.5,82.1667 15.5,84.5C 14.5423,85.9616 13.3756,87.2949 12,88.5C 11.5,62.8355 11.3334,37.1688 11.5,11.5C 37.1688,11.3334 62.8355,11.5 88.5,12C 87.2949,13.3756 85.9616,14.5423 84.5,15.5 Z"/></g>
<g><path style="opacity:1" fill="#5bebf8" d="M 43.5,15.5 C 34.5055,25.8274 25.1722,35.8274 15.5,45.5C 15.5,35.5 15.5,25.5 15.5,15.5C 24.8333,15.5 34.1667,15.5 43.5,15.5 Z"/></g>
<g><path style="opacity:1" fill="#54e2f3" d="M 43.5,15.5 C 47.5,15.5 51.5,15.5 55.5,15.5C 42.5296,30.4717 29.1962,45.1383 15.5,59.5C 15.5,54.8333 15.5,50.1667 15.5,45.5C 25.1722,35.8274 34.5055,25.8274 43.5,15.5 Z"/></g>
<g><path style="opacity:1" fill="#4cd9ee" d="M 55.5,15.5 C 61.1667,15.5 66.8333,15.5 72.5,15.5C 53.9565,36.5876 34.9565,57.2543 15.5,77.5C 15.5,71.5 15.5,65.5 15.5,59.5C 29.1962,45.1383 42.5296,30.4717 55.5,15.5 Z"/></g>
<g><path style="opacity:1" fill="#44cde8" d="M 72.5,15.5 C 76.5,15.5 80.5,15.5 84.5,15.5C 78.5361,21.9648 72.3694,28.2981 66,34.5C 65.3333,35.5 65.3333,36.5 66,37.5C 67.045,38.3734 67.8783,39.3734 68.5,40.5C 62.9433,48.2339 56.7766,55.5672 50,62.5C 47.5644,65.4468 44.7311,67.7801 41.5,69.5C 40.0384,68.5423 38.7051,67.3756 37.5,66C 36.5,65.3333 35.5,65.3333 34.5,66C 28.2981,72.3694 21.9648,78.5361 15.5,84.5C 15.5,82.1667 15.5,79.8333 15.5,77.5C 34.9565,57.2543 53.9565,36.5876 72.5,15.5 Z"/></g>
<g><path style="opacity:0.988" fill="#484c50" d="M 195.5,160.5 C 193.833,159.5 192.5,158.167 191.5,156.5C 191.667,141.83 191.5,127.163 191,112.5C 190.392,110.934 189.558,109.6 188.5,108.5C 188.5,107.833 188.167,107.5 187.5,107.5C 185.91,105.766 183.91,104.6 181.5,104C 145.167,103.333 108.833,103.333 72.5,104C 68.3333,105.5 65.5,108.333 64,112.5C 63.3333,136.833 63.3333,161.167 64,185.5C 64.3661,187.452 65.1995,189.118 66.5,190.5C 66.5,191.167 66.8333,191.5 67.5,191.5C 68.7489,193.136 70.4156,194.303 72.5,195C 101.831,195.5 131.165,195.667 160.5,195.5C 162.167,196.5 163.5,197.833 164.5,199.5C 133.498,199.667 102.498,199.5 71.5,199C 65.6667,197.167 61.8333,193.333 60,187.5C 59.3333,162.167 59.3333,136.833 60,111.5C 61.1979,107.76 63.3645,104.76 66.5,102.5C 68.2838,102.107 69.9505,101.441 71.5,100.5C 72.7079,99.7659 74.0413,99.4326 75.5,99.5C 75.5,91.1667 75.5,82.8333 75.5,74.5C 75.3497,69.7001 76.0164,65.0334 77.5,60.5C 78.2134,57.4061 79.2134,54.4061 80.5,51.5C 81.9313,50.2196 82.5979,48.5529 82.5,46.5C 89.8353,36.8238 99.502,30.6571 111.5,28C 122.167,27.3333 132.833,27.3333 143.5,28C 162.667,32.5 174.5,44.3333 179,63.5C 179.5,75.4954 179.667,87.4954 179.5,99.5C 187.357,100.013 192.524,104.013 195,111.5C 195.5,127.83 195.667,144.163 195.5,160.5 Z M 102.5,99.5 C 106.797,94.7021 111.297,90.0355 116,85.5C 116.667,83.8333 116.667,82.1667 116,80.5C 111.298,75.6301 106.465,70.9634 101.5,66.5C 104.434,59.7334 109.434,55.2334 116.5,53C 123.833,52.3333 131.167,52.3333 138.5,53C 146.333,55.5 151.5,60.6667 154,68.5C 154.5,78.828 154.666,89.1613 154.5,99.5C 137.167,99.5 119.833,99.5 102.5,99.5 Z"/></g>
<g><path style="opacity:1" fill="#f8f8f8" d="M 152.5,35.5 C 152.083,36.1239 151.416,36.4573 150.5,36.5C 141.266,34.5195 131.933,34.0195 122.5,35C 110.406,42.7965 98.5722,50.9632 87,59.5C 84.0791,66.5326 82.9124,73.866 83.5,81.5C 83.5,87.5 83.5,93.5 83.5,99.5C 82.1667,99.5 80.8333,99.5 79.5,99.5C 79.0994,86.4479 79.5994,73.4479 81,60.5C 85.9542,45.878 95.7875,36.378 110.5,32C 121.167,31.3333 131.833,31.3333 142.5,32C 145.899,33.077 149.233,34.2437 152.5,35.5 Z"/></g>
<g><path style="opacity:1" fill="#e4e4e5" d="M 152.5,35.5 C 154.332,36.2485 155.999,37.2485 157.5,38.5C 157.44,39.0431 157.107,39.3764 156.5,39.5C 155.167,38.8333 153.833,38.1667 152.5,37.5C 147.262,40.6086 142.262,43.942 137.5,47.5C 130.159,47.3337 122.826,47.5003 115.5,48C 103.007,51.9865 96.3407,60.4865 95.5,73.5C 91.5,76.1667 87.5,78.8333 83.5,81.5C 82.9124,73.866 84.0791,66.5326 87,59.5C 98.5722,50.9632 110.406,42.7965 122.5,35C 131.933,34.0195 141.266,34.5195 150.5,36.5C 151.416,36.4573 152.083,36.1239 152.5,35.5 Z"/></g>
<g><path style="opacity:1" fill="#cacbcc" d="M 157.5,38.5 C 162.287,41.9481 165.954,46.2814 168.5,51.5C 165.556,54.1285 162.223,56.1285 158.5,57.5C 158.5,58.5 158.5,59.5 158.5,60.5C 157.542,60.0472 156.708,59.3805 156,58.5C 155.601,58.7284 155.435,59.0618 155.5,59.5C 151.145,52.9919 145.145,48.9919 137.5,47.5C 142.262,43.942 147.262,40.6086 152.5,37.5C 153.833,38.1667 155.167,38.8333 156.5,39.5C 157.107,39.3764 157.44,39.0431 157.5,38.5 Z"/></g>
<g><path style="opacity:1" fill="#37bedf" d="M 68.5,40.5 C 72.5,44.1667 76.5,47.8333 80.5,51.5C 79.2134,54.4061 78.2134,57.4061 77.5,60.5C 76.7611,60.369 76.0944,60.5357 75.5,61C 68.9193,68.7454 61.9193,75.9121 54.5,82.5C 49.8333,78.5 45.5,74.1667 41.5,69.5C 44.7311,67.7801 47.5644,65.4468 50,62.5C 56.7766,55.5672 62.9433,48.2339 68.5,40.5 Z"/></g>
<g><path style="opacity:1" fill="#f0f0f1" d="M 158.5,60.5 C 159.927,63.0236 161.094,65.6902 162,68.5C 162.5,78.828 162.666,89.1613 162.5,99.5C 161.167,99.5 159.833,99.5 158.5,99.5C 158.667,88.1618 158.5,76.8284 158,65.5C 157.427,63.3594 156.594,61.3594 155.5,59.5C 155.435,59.0618 155.601,58.7284 156,58.5C 156.708,59.3805 157.542,60.0472 158.5,60.5 Z"/></g>
<g><path style="opacity:1" fill="#2eb2d8" d="M 77.5,60.5 C 76.0164,65.0334 75.3497,69.7001 75.5,74.5C 70.4274,79.2444 65.4274,83.9111 60.5,88.5C 58.1667,86.8333 56.1667,84.8333 54.5,82.5C 61.9193,75.9121 68.9193,68.7454 75.5,61C 76.0944,60.5357 76.7611,60.369 77.5,60.5 Z"/></g>
<g><path style="opacity:1" fill="#b6b7b9" d="M 168.5,51.5 C 172.044,55.7803 174.044,60.7803 174.5,66.5C 174.703,68.3904 174.037,69.8904 172.5,71C 169.582,72.7088 166.748,74.5421 164,76.5C 163.5,84.1594 163.334,91.8261 163.5,99.5C 163.167,99.5 162.833,99.5 162.5,99.5C 162.666,89.1613 162.5,78.828 162,68.5C 161.094,65.6902 159.927,63.0236 158.5,60.5C 158.5,59.5 158.5,58.5 158.5,57.5C 162.223,56.1285 165.556,54.1285 168.5,51.5 Z"/></g>
<g><path style="opacity:0.939" fill="#086cbd" d="M 101.5,66.5 C 106.465,70.9634 111.298,75.6301 116,80.5C 116.667,82.1667 116.667,83.8333 116,85.5C 111.297,90.0355 106.797,94.7021 102.5,99.5C 101.833,99.5 101.167,99.5 100.5,99.5C 100.338,97.4727 100.505,95.4727 101,93.5C 104.5,90 108,86.5 111.5,83C 108,79.5 104.5,76 101,72.5C 100.51,71.2068 100.343,69.8734 100.5,68.5C 100.328,67.5084 100.662,66.8417 101.5,66.5 Z"/></g>
<g><path style="opacity:1" fill="#269bc5" d="M 100.5,68.5 C 100.343,69.8734 100.51,71.2068 101,72.5C 104.5,76 108,79.5 111.5,83C 108,86.5 104.5,90 101,93.5C 100.505,95.4727 100.338,97.4727 100.5,99.5C 99.1667,89.1667 99.1667,78.8333 100.5,68.5 Z"/></g>
<g><path style="opacity:1" fill="#27aad4" d="M 75.5,74.5 C 75.5,82.8333 75.5,91.1667 75.5,99.5C 74.0413,99.4326 72.7079,99.7659 71.5,100.5C 67.8333,96.5 64.1667,92.5 60.5,88.5C 65.4274,83.9111 70.4274,79.2444 75.5,74.5 Z"/></g>
<g><path style="opacity:1" fill="#9c9ea0" d="M 174.5,66.5 C 175.495,77.3206 175.828,88.3206 175.5,99.5C 171.5,99.5 167.5,99.5 163.5,99.5C 163.334,91.8261 163.5,84.1594 164,76.5C 166.748,74.5421 169.582,72.7088 172.5,71C 174.037,69.8904 174.703,68.3904 174.5,66.5 Z"/></g>
<g><path style="opacity:1" fill="#cdcecf" d="M 95.5,73.5 C 95.5,82.1667 95.5,90.8333 95.5,99.5C 91.5,99.5 87.5,99.5 83.5,99.5C 83.5,93.5 83.5,87.5 83.5,81.5C 87.5,78.8333 91.5,76.1667 95.5,73.5 Z"/></g>
<g><path style="opacity:1" fill="#fdfefe" d="M 187.5,107.5 C 186.791,108.404 185.791,108.737 184.5,108.5C 180.03,107.514 175.363,107.181 170.5,107.5C 166.167,107.5 161.833,107.5 157.5,107.5C 152.833,107.5 148.167,107.5 143.5,107.5C 139.167,107.5 134.833,107.5 130.5,107.5C 125.167,107.5 119.833,107.5 114.5,107.5C 101.829,107.333 89.1623,107.5 76.5,108C 72.3333,109.5 69.5,112.333 68,116.5C 67.5002,127.495 67.3335,138.495 67.5,149.5C 67.5,154.5 67.5,159.5 67.5,164.5C 67.5,168.167 67.5,171.833 67.5,175.5C 67.8205,180.695 67.4872,185.695 66.5,190.5C 65.1995,189.118 64.3661,187.452 64,185.5C 63.3333,161.167 63.3333,136.833 64,112.5C 65.5,108.333 68.3333,105.5 72.5,104C 108.833,103.333 145.167,103.333 181.5,104C 183.91,104.6 185.91,105.766 187.5,107.5 Z"/></g>
<g><path style="opacity:1" fill="#e0e3e6" d="M 114.5,107.5 C 98.859,121.471 83.1923,135.471 67.5,149.5C 67.3335,138.495 67.5002,127.495 68,116.5C 69.5,112.333 72.3333,109.5 76.5,108C 89.1623,107.5 101.829,107.333 114.5,107.5 Z"/></g>
<g><path style="opacity:1" fill="#d5d8db" d="M 114.5,107.5 C 119.833,107.5 125.167,107.5 130.5,107.5C 109.825,126.841 88.8246,145.841 67.5,164.5C 67.5,159.5 67.5,154.5 67.5,149.5C 83.1923,135.471 98.859,121.471 114.5,107.5 Z"/></g>
<g><path style="opacity:1" fill="#cdcfd2" d="M 130.5,107.5 C 134.833,107.5 139.167,107.5 143.5,107.5C 118.47,130.531 93.137,153.198 67.5,175.5C 67.5,171.833 67.5,168.167 67.5,164.5C 88.8246,145.841 109.825,126.841 130.5,107.5 Z"/></g>
<g><path style="opacity:1" fill="#c2c5c8" d="M 143.5,107.5 C 148.167,107.5 152.833,107.5 157.5,107.5C 128.951,134.118 99.9507,160.284 70.5,186C 68.9632,187.11 68.2965,188.61 68.5,190.5C 68.5,191.167 68.1667,191.5 67.5,191.5C 66.8333,191.5 66.5,191.167 66.5,190.5C 67.4872,185.695 67.8205,180.695 67.5,175.5C 93.137,153.198 118.47,130.531 143.5,107.5 Z"/></g>
<g><path style="opacity:1" fill="#babcbf" d="M 157.5,107.5 C 161.833,107.5 166.167,107.5 170.5,107.5C 139.534,135.131 108.867,163.131 78.5,191.5C 75.0613,191.747 71.728,191.414 68.5,190.5C 68.2965,188.61 68.9632,187.11 70.5,186C 99.9507,160.284 128.951,134.118 157.5,107.5 Z"/></g>
<g><path style="opacity:1" fill="#afb2b5" d="M 170.5,107.5 C 175.363,107.181 180.03,107.514 184.5,108.5C 153.23,135.433 122.564,163.1 92.5,191.5C 87.8333,191.5 83.1667,191.5 78.5,191.5C 108.867,163.131 139.534,135.131 170.5,107.5 Z"/></g>
<g><path style="opacity:1" fill="#808285" d="M 188.5,108.5 C 189.558,109.6 190.392,110.934 191,112.5C 191.5,127.163 191.667,141.83 191.5,156.5C 189.833,155.5 188.5,154.167 187.5,152.5C 187.5,141.833 187.5,131.167 187.5,120.5C 187.237,116.4 187.57,112.4 188.5,108.5 Z"/></g>
<g><path style="opacity:1" fill="#a4a7aa" d="M 187.5,107.5 C 188.167,107.5 188.5,107.833 188.5,108.5C 187.57,112.4 187.237,116.4 187.5,120.5C 160.876,143.457 134.876,167.123 109.5,191.5C 103.833,191.5 98.1667,191.5 92.5,191.5C 122.564,163.1 153.23,135.433 184.5,108.5C 185.791,108.737 186.791,108.404 187.5,107.5 Z"/></g>
<g><path style="opacity:1" fill="#999c9e" d="M 187.5,120.5 C 187.5,131.167 187.5,141.833 187.5,152.5C 182.702,148.203 178.035,143.703 173.5,139C 172.5,138.333 171.5,138.333 170.5,139C 160,149.5 149.5,160 139,170.5C 138.333,171.5 138.333,172.5 139,173.5C 141.04,175.37 142.873,177.37 144.5,179.5C 140.335,183.497 136.002,187.33 131.5,191C 124.174,191.5 116.841,191.666 109.5,191.5C 134.876,167.123 160.876,143.457 187.5,120.5 Z"/></g>
<g><path style="opacity:0.997" fill="#4a9314" d="M 187.5,152.5 C 188.5,154.167 189.833,155.5 191.5,156.5C 192.5,158.167 193.833,159.5 195.5,160.5C 203.479,168.145 211.479,175.812 219.5,183.5C 227.986,175.514 236.319,167.348 244.5,159C 245.449,158.383 246.282,158.549 247,159.5C 247.5,188.831 247.667,218.165 247.5,247.5C 218.165,247.667 188.831,247.5 159.5,247C 158.549,246.282 158.383,245.449 159,244.5C 167.348,236.319 175.514,227.986 183.5,219.5C 177.145,212.813 170.812,206.146 164.5,199.5C 163.5,197.833 162.167,196.5 160.5,195.5C 155.5,189.833 150.167,184.5 144.5,179.5C 142.873,177.37 141.04,175.37 139,173.5C 138.333,172.5 138.333,171.5 139,170.5C 149.5,160 160,149.5 170.5,139C 171.5,138.333 172.5,138.333 173.5,139C 178.035,143.703 182.702,148.203 187.5,152.5 Z"/></g>
<g><path style="opacity:1" fill="#65d312" d="M 213.5,185.5 C 203.405,194.258 194.405,203.924 186.5,214.5C 172.035,200.535 157.701,186.369 143.5,172C 153,162.5 162.5,153 172,143.5C 186.035,157.368 199.869,171.368 213.5,185.5 Z"/></g>
<g><path style="opacity:1" fill="#73da26" d="M 239.5,170.5 C 239.5,174.5 239.5,178.5 239.5,182.5C 220.83,201.17 202.497,220.17 184.5,239.5C 179.833,239.5 175.167,239.5 170.5,239.5C 176.464,233.035 182.631,226.702 189,220.5C 189.667,219.5 189.667,218.5 189,217.5C 187.955,216.627 187.122,215.627 186.5,214.5C 194.405,203.924 203.405,194.258 213.5,185.5C 214.962,186.458 216.295,187.624 217.5,189C 218.5,189.667 219.5,189.667 220.5,189C 226.702,182.631 233.035,176.464 239.5,170.5 Z"/></g>
<g><path style="opacity:1" fill="#828587" d="M 144.5,179.5 C 150.167,184.5 155.5,189.833 160.5,195.5C 131.165,195.667 101.831,195.5 72.5,195C 70.4156,194.303 68.7489,193.136 67.5,191.5C 68.1667,191.5 68.5,191.167 68.5,190.5C 71.728,191.414 75.0613,191.747 78.5,191.5C 83.1667,191.5 87.8333,191.5 92.5,191.5C 98.1667,191.5 103.833,191.5 109.5,191.5C 116.841,191.666 124.174,191.5 131.5,191C 136.002,187.33 140.335,183.497 144.5,179.5 Z"/></g>
<g><path style="opacity:1" fill="#7edf34" d="M 239.5,182.5 C 239.5,201.5 239.5,220.5 239.5,239.5C 221.167,239.5 202.833,239.5 184.5,239.5C 202.497,220.17 220.83,201.17 239.5,182.5 Z"/></g>
<g><path style="opacity:1" fill="#c1f09e" d="M 170.5,239.5 C 175.167,239.5 179.833,239.5 184.5,239.5C 202.833,239.5 221.167,239.5 239.5,239.5C 239.5,220.5 239.5,201.5 239.5,182.5C 239.5,178.5 239.5,174.5 239.5,170.5C 240.458,169.038 241.624,167.705 243,166.5C 243.5,192.165 243.667,217.831 243.5,243.5C 217.831,243.667 192.165,243.5 166.5,243C 167.705,241.624 169.038,240.458 170.5,239.5 Z"/></g>
</svg>
